<?xml version="1.0" encoding="UTF-8" standalone="no"?>
<svg
   viewBox="0 0 50.8 50.8"
   height="192"
   width="192"
   version="1.1"
   id="svg72"
   xmlns:xlink="http://www.w3.org/1999/xlink"
   xmlns="http://www.w3.org/2000/svg"
   xmlns:svg="http://www.w3.org/2000/svg">
  <defs
     id="defs50">
    <linearGradient
       id="A"
       x1="35.917"
       y1="-1.997"
       x2="35.917"
       y2="134"
       xlink:href="#J"
       gradientTransform="matrix(0.36967832,0,0,0.37266334,2.6185524,0.74625561)">
      <stop
         stop-color="#444d56"
         offset="0%"
         id="stop2" />
      <stop
         stop-color="#24292e"
         offset="100%"
         id="stop4" />
    </linearGradient>
    <linearGradient
       y2="93.069"
       y1="208.83"
       x1="171.766"
       id="B"
       gradientTransform="matrix(0.07414486,0,0,0.25201395,79.134509,187.90598)"
       x2="398.697"
       xlink:href="#J">
      <stop
         stop-opacity=".5"
         stop-color="#fff"
         offset="0%"
         id="stop7" />
      <stop
         stop-opacity=".1"
         stop-color="#fff"
         offset="100%"
         id="stop9" />
    </linearGradient>
    <linearGradient
       y2="98.778"
       y1="2.227"
       x2="564.005"
       x1="385.071"
       id="C"
       gradientTransform="matrix(0.07447288,0,0,0.25090394,79.134509,187.90598)"
       xlink:href="#J">
      <stop
         stop-opacity=".5"
         stop-color="#fff"
         offset="0%"
         id="stop12" />
      <stop
         stop-opacity=".1"
         stop-color="#fff"
         offset="100%"
         id="stop14" />
    </linearGradient>
    <linearGradient
       y2="23.901"
       y1="274.721"
       x2="216.661"
       x1="283.418"
       id="D"
       gradientTransform="matrix(0.1010762,0,0,0.18486585,79.134509,187.90598)"
       xlink:href="#J">
      <stop
         stop-color="#ffa95f"
         offset="0%"
         id="stop17" />
      <stop
         stop-color="#ffebc8"
         offset="100%"
         id="stop19" />
    </linearGradient>
    <linearGradient
       y2="0"
       y1="211.195"
       x2="557.763"
       x1="293.981"
       id="E"
       gradientTransform="matrix(0.07768278,0,0,0.24053642,79.134509,187.90598)"
       xlink:href="#J">
      <stop
         stop-opacity=".8"
         stop-color="#d96504"
         offset="0%"
         id="stop22" />
      <stop
         stop-opacity=".2"
         stop-color="#d96504"
         offset="49.8%"
         id="stop24" />
      <stop
         stop-opacity="0"
         stop-color="#d96504"
         offset="100%"
         id="stop26" />
    </linearGradient>
    <linearGradient
       y2="24.296"
       y1="279.268"
       x2="351.073"
       x1="418.936"
       id="F"
       gradientTransform="matrix(0.10253583,0,0,0.18147777,79.194145,187.90598)"
       xlink:href="#J">
      <stop
         stop-color="#ee6f05"
         offset="0%"
         id="stop29" />
      <stop
         stop-color="#fab743"
         offset="100%"
         id="stop31" />
    </linearGradient>
    <linearGradient
       y2="199.577"
       y1="189.829"
       x2="98.543"
       x1="92.992"
       id="G"
       xlink:href="#J">
      <stop
         stop-color="#eb6f07"
         offset="0%"
         id="stop34" />
      <stop
         stop-opacity="0"
         stop-color="#eb720a"
         offset="100%"
         id="stop36" />
    </linearGradient>
    <linearGradient
       y2="203.702"
       y1="296.26"
       x2="76.343"
       x1="145.505"
       id="H"
       gradientTransform="matrix(0.12095187,0,0,0.15448741,79.134509,187.90598)"
       xlink:href="#J">
      <stop
         stop-color="#d96504"
         offset="0%"
         id="stop39" />
      <stop
         stop-opacity="0"
         stop-color="#d96504"
         offset="100%"
         id="stop41" />
    </linearGradient>
    <linearGradient
       gradientTransform="matrix(0.09026771,0,0,0.20700136,79.134509,187.90598)"
       id="I"
       y2="24.269"
       y1="241.876"
       x2="61.352"
       x1="119.27"
       xlink:href="#J">
      <stop
         stop-color="#eb6f07"
         offset="0%"
         id="stop44" />
      <stop
         stop-color="#fab743"
         offset="100%"
         id="stop46" />
    </linearGradient>
    <linearGradient
       id="J"
       gradientUnits="userSpaceOnUse" />
  </defs>
  <path
     d="M 1.2071018e-4,3.7822188 C 1.2071018e-4,0.00346509 3.1469187,0.00167429 3.7650208,0.00167429 H 31.792457 V 50.683141 H 3.7650208 c -0.6181021,0 -3.76490008982,0.008 -3.76490008982,-3.780718 z"
     fill="url(#A)"
     fill-rule="nonzero"
     id="path52"
     style="fill:url(#A);stroke-width:0.37117" />
  <g
     transform="translate(-76.973 -187.906)"
     id="g70">
    <path
       d="M93.897 188.637l6.761 11.972-6.209 10.97a3.587 3.521 0 0 0 0 3.426l6.209 10.997-6.761 11.972a7.175 7.042 0 0 1-3.035-2.803L80.1 216.82a7.202 7.069 0 0 1 0-7.042l10.762-18.351a7.175 7.042 0 0 1 3.035-2.79z"
       fill="url(#I)"
       id="path54" />
    <path
       d="M94.449 211.593a3.587 3.521 0 0 0 0 3.413l6.209 10.997-6.761 11.972a7.175 7.042 0 0 1-3.035-2.803L80.1 216.82c-.855-1.449 3.932-3.183 14.349-5.214z"
       opacity=".7"
       fill="url(#H)"
       id="path56" />
    <path
       d="M94.587 189.843l6.071 10.767-1.007 1.72-5.353-8.898c-1.545-2.478-3.905-1.192-6.857 3.819l.442-.745 2.98-5.079a7.175 7.042 0 0 1 3.008-2.79l.704 1.205z"
       opacity=".5"
       fill="url(#G)"
       id="path58" />
    <path
       d="m 127.73158,234.70629 c -0.0329,0.87118 -0.11969,3.77841 -3.77546,3.77841 l -16.12311,0.10278 13.35519,-23.63777 c 0.59776,-1.0598 0.59776,-2.34612 0,-3.40591 l -13.35519,-23.63779 16.12311,0.002 c 3.76943,0 3.75849,3.20855 3.77546,3.77836 z"
       fill="url(#F)"
       id="path60"
       style="fill:url(#F);stroke-width:1" />
    <path
       d="M118.042 238.611l-10.624.095 12.859-23.809a3.725 3.657 0 0 0 0-3.44l-12.859-23.551h2.428l13.494 23.443a3.725 3.657 0 0 1-.014 3.63 2155.665 2115.967 0 0 0-8.651 14.897c-2.621 4.523-1.49 7.435 3.367 8.735z"
       fill="url(#E)"
       id="path62" />
    <path
       d="M97.071 238.692a7.45 7.45 0 0 1-3.173-.718l13.273-23.497a2.39 2.39 0 0 0 0-2.356l-13.273-23.484a7.175 7.042 0 0 1 3.173-.731h10.762l13.383 23.687a3.587 3.521 0 0 1 0 3.413l-13.383 23.687z"
       fill="url(#D)"
       id="path64" />
    <path
       d="M120.278 212.121l-13.687-24.215h1.242l13.383 23.687a3.587 3.521 0 0 1 0 3.413l-13.383 23.687h-1.242l13.687-24.215a2.39 2.39 0 0 0 0-2.356z"
       opacity=".6"
       fill="url(#C)"
       id="path66" />
    <path
       d="M107.17 212.121l-13.273-23.484c.414-.217.911-.379 1.38-.515l12.969 23.47a3.587 3.521 0 0 1 0 3.413L95.07 238.422c-.469-.135-.717-.23-1.159-.433l13.245-23.497a2.39 2.39 0 0 0 0-2.356z"
       opacity=".6"
       fill="url(#B)"
       id="path68" />
  </g>
</svg>
